<svg xmlns="http://www.w3.org/2000/svg" xmlns:xlink="http://www.w3.org/1999/xlink" width="1080" zoomAndPan="magnify" viewBox="0 0 810 809.999993" height="1080" preserveAspectRatio="xMidYMid meet" version="1.0"><defs><clipPath id="738f963449"><path d="M 2 320 L 809 320 L 809 512.847656 L 2 512.847656 Z M 2 320 " clip-rule="nonzero"/></clipPath></defs><rect x="-81" width="972" fill="#ffffff" y="-80.999999" height="971.999992" fill-opacity="1"/><rect x="-81" width="972" fill="#161830" y="-80.999999" height="971.999992" fill-opacity="1"/><g clip-path="url(#738f963449)"><path fill="#ef4f0b" d="M 789.609375 356.003906 C 781.636719 350.132812 773.234375 344.957031 764.402344 340.480469 C 755.570312 336.003906 746.433594 332.289062 736.984375 329.332031 C 727.417969 326.5625 717.707031 324.476562 707.847656 323.078125 C 697.988281 321.679688 688.078125 320.980469 678.121094 320.980469 C 668.164062 320.980469 658.253906 321.679688 648.394531 323.078125 C 638.539062 324.476562 628.824219 326.5625 619.261719 329.332031 C 609.8125 332.28125 600.671875 335.992188 591.839844 340.464844 C 583.007812 344.933594 574.605469 350.105469 566.632812 355.972656 C 533.824219 379.304688 506.410156 413.085938 469.460938 439.789062 C 460.152344 446.621094 450.347656 452.640625 440.046875 457.84375 C 429.742188 463.050781 419.082031 467.371094 408.0625 470.8125 C 397.054688 474.027344 385.875 476.449219 374.519531 478.074219 C 363.167969 479.699219 351.753906 480.511719 340.285156 480.511719 C 328.816406 480.511719 317.40625 479.699219 306.054688 478.074219 C 294.699219 476.449219 283.519531 474.027344 272.511719 470.8125 C 261.492188 467.375 250.832031 463.054688 240.53125 457.851562 C 230.226562 452.648438 220.421875 446.632812 211.113281 439.804688 C 174.164062 413.101562 146.75 379.328125 113.941406 355.988281 C 105.96875 350.117188 97.566406 344.945312 88.734375 340.46875 C 79.902344 335.996094 70.761719 332.285156 61.3125 329.332031 C 42.078125 323.578125 22.425781 320.789062 2.347656 320.957031 L 2.347656 352.863281 C 19.175781 352.699219 35.652344 355.015625 51.785156 359.808594 C 67.511719 364.714844 81.996094 372.070312 95.242188 381.871094 C 110.660156 393.558594 125.25 406.203125 139.007812 419.800781 C 155.792969 436.289062 173.601562 451.585938 192.433594 465.691406 C 203.148438 473.527344 214.433594 480.429688 226.292969 486.402344 C 238.148438 492.375 250.414062 497.332031 263.085938 501.28125 C 275.597656 505.046875 288.320312 507.863281 301.253906 509.726562 C 314.1875 511.585938 327.1875 512.476562 340.253906 512.390625 C 353.324219 512.472656 366.324219 511.582031 379.257812 509.71875 C 392.195312 507.855469 404.917969 505.039062 417.433594 501.273438 C 430.101562 497.320312 442.363281 492.359375 454.214844 486.382812 C 466.070312 480.40625 477.351562 473.496094 488.0625 465.65625 C 506.894531 451.554688 524.703125 436.257812 541.484375 419.769531 C 555.238281 406.175781 569.816406 393.535156 585.222656 381.847656 C 598.457031 372.054688 612.929688 364.703125 628.644531 359.792969 C 636.6875 357.492188 644.851562 355.761719 653.136719 354.601562 C 661.421875 353.4375 669.746094 352.859375 678.113281 352.859375 C 686.480469 352.859375 694.804688 353.4375 703.089844 354.601562 C 711.375 355.761719 719.539062 357.492188 727.582031 359.792969 C 743.300781 364.722656 757.773438 372.089844 771.007812 381.90625 C 784.023438 391.664062 796.375 402.203125 808.058594 413.523438 L 808.058594 370.601562 C 802.007812 365.457031 795.925781 360.496094 789.609375 356.003906 Z M 789.609375 356.003906 " fill-opacity="1" fill-rule="nonzero"/></g><path fill="#d0c3f1" d="M 807.773438 330.765625 C 798.425781 323.917969 788.582031 317.882812 778.238281 312.660156 C 767.894531 307.441406 757.191406 303.105469 746.128906 299.660156 C 735.082031 296.425781 723.859375 293.992188 712.464844 292.359375 C 701.070312 290.726562 689.617188 289.90625 678.109375 289.902344 C 666.597656 289.898438 655.144531 290.710938 643.75 292.339844 C 632.355469 293.96875 621.132812 296.394531 610.082031 299.617188 C 599.019531 303.066406 588.3125 307.398438 577.964844 312.621094 C 567.617188 317.839844 557.769531 323.875 548.421875 330.726562 C 511.351562 357.496094 483.957031 391.277344 451.265625 414.519531 C 443.324219 420.367188 434.957031 425.519531 426.160156 429.972656 C 417.363281 434.425781 408.257812 438.121094 398.84375 441.058594 C 389.320312 443.816406 379.652344 445.894531 369.835938 447.289062 C 360.019531 448.679688 350.152344 449.378906 340.238281 449.378906 C 330.324219 449.378906 320.457031 448.679688 310.640625 447.289062 C 300.824219 445.894531 291.15625 443.816406 281.632812 441.058594 C 272.222656 438.121094 263.121094 434.425781 254.324219 429.972656 C 245.527344 425.523438 237.160156 420.375 229.222656 414.527344 C 196.53125 391.285156 169.117188 357.511719 132.046875 330.710938 C 122.699219 323.859375 112.855469 317.824219 102.507812 312.605469 C 92.164062 307.382812 81.457031 303.050781 70.394531 299.601562 C 48.203125 292.945312 25.519531 289.699219 2.347656 289.863281 L 2.347656 321.769531 C 22.304688 321.601562 41.847656 324.375 60.972656 330.089844 C 70.382812 333.027344 79.488281 336.726562 88.285156 341.179688 C 97.085938 345.632812 105.453125 350.78125 113.398438 356.625 C 146.089844 379.878906 173.503906 413.652344 210.570312 440.445312 C 219.917969 447.296875 229.761719 453.332031 240.105469 458.554688 C 250.449219 463.773438 261.152344 468.105469 272.214844 471.550781 C 283.261719 474.78125 294.484375 477.214844 305.878906 478.84375 C 317.269531 480.476562 328.722656 481.292969 340.230469 481.292969 C 351.742188 481.292969 363.191406 480.476562 374.585938 478.84375 C 385.980469 477.214844 397.199219 474.78125 408.246094 471.550781 C 419.308594 468.105469 430.007812 463.773438 440.351562 458.550781 C 450.695312 453.332031 460.539062 447.296875 469.882812 440.445312 C 506.9375 413.644531 534.347656 379.871094 567.050781 356.625 C 574.996094 350.777344 583.371094 345.621094 592.171875 341.164062 C 600.976562 336.710938 610.089844 333.011719 619.507812 330.074219 C 629.03125 327.316406 638.703125 325.242188 648.515625 323.847656 C 658.332031 322.457031 668.199219 321.757812 678.113281 321.757812 C 688.027344 321.757812 697.894531 322.457031 707.710938 323.847656 C 717.527344 325.242188 727.195312 327.316406 736.71875 330.074219 C 746.128906 333.015625 755.234375 336.714844 764.03125 341.171875 C 772.824219 345.632812 781.191406 350.785156 789.128906 356.636719 C 795.605469 361.238281 801.839844 366.335938 808.019531 371.628906 L 808.019531 330.980469 Z M 807.773438 330.765625 " fill-opacity="1" fill-rule="nonzero"/><path fill="#c8d9ed" d="M 755.289062 269.9375 C 742.757812 266.253906 730.03125 263.476562 717.101562 261.617188 C 704.171875 259.753906 691.179688 258.824219 678.117188 258.824219 C 665.054688 258.824219 652.0625 259.753906 639.132812 261.617188 C 626.207031 263.476562 613.476562 266.253906 600.945312 269.9375 C 588.273438 273.871094 576.007812 278.816406 564.152344 284.777344 C 552.296875 290.738281 541.007812 297.632812 530.289062 305.457031 C 511.457031 319.558594 493.652344 334.855469 476.867188 351.347656 C 463.101562 364.945312 448.511719 377.59375 433.09375 389.28125 C 419.859375 399.082031 405.386719 406.441406 389.675781 411.363281 C 373.542969 416.152344 357.066406 418.464844 340.238281 418.300781 C 323.414062 418.460938 306.933594 416.152344 290.800781 411.371094 C 275.089844 406.453125 260.617188 399.097656 247.378906 389.308594 C 231.960938 377.621094 217.371094 364.976562 203.609375 351.378906 C 186.824219 334.890625 169.019531 319.59375 150.1875 305.488281 C 139.46875 297.65625 128.179688 290.753906 116.320312 284.78125 C 104.460938 278.8125 92.195312 273.855469 79.515625 269.914062 C 67.003906 266.148438 54.28125 263.332031 41.347656 261.46875 C 28.414062 259.605469 15.414062 258.714844 2.347656 258.792969 L 2.347656 290.699219 C 25.425781 290.539062 48.019531 293.773438 70.125 300.398438 C 81.140625 303.839844 91.804688 308.160156 102.105469 313.367188 C 112.410156 318.570312 122.214844 324.585938 131.523438 331.414062 C 168.480469 358.117188 195.894531 391.890625 228.695312 415.230469 C 236.667969 421.097656 245.070312 426.269531 253.902344 430.742188 C 262.734375 435.214844 271.875 438.925781 281.320312 441.878906 C 290.886719 444.652344 300.601562 446.738281 310.460938 448.136719 C 320.320312 449.535156 330.230469 450.234375 340.1875 450.234375 C 350.144531 450.234375 360.054688 449.535156 369.914062 448.136719 C 379.773438 446.738281 389.488281 444.652344 399.050781 441.878906 C 408.5 438.925781 417.640625 435.210938 426.472656 430.734375 C 435.304688 426.261719 443.707031 421.085938 451.679688 415.214844 C 484.480469 391.867188 511.894531 358.085938 548.851562 331.390625 C 558.160156 324.5625 567.964844 318.550781 578.269531 313.347656 C 588.570312 308.144531 599.230469 303.828125 610.25 300.390625 C 621.261719 297.179688 632.441406 294.765625 643.796875 293.144531 C 655.148438 291.523438 666.558594 290.714844 678.027344 290.71875 C 689.496094 290.71875 700.90625 291.535156 712.261719 293.164062 C 723.613281 294.789062 734.792969 297.214844 745.800781 300.433594 C 756.820312 303.871094 767.484375 308.195312 777.785156 313.402344 C 788.089844 318.609375 797.894531 324.628906 807.199219 331.460938 C 807.453125 331.644531 807.691406 331.84375 807.949219 332.035156 L 807.949219 293.746094 C 791.40625 283.574219 773.855469 275.636719 755.289062 269.9375 Z M 755.289062 269.9375 " fill-opacity="1" fill-rule="nonzero"/><path fill="#f5f4f4" d="M 764.347656 240.59375 C 757.359375 238.523438 750.304688 236.707031 743.1875 235.144531 C 736.066406 233.585938 728.902344 232.28125 721.6875 231.234375 C 714.476562 230.1875 707.234375 229.402344 699.964844 228.875 C 692.695312 228.351562 685.417969 228.085938 678.128906 228.085938 C 670.839844 228.082031 663.5625 228.34375 656.292969 228.863281 C 649.023438 229.386719 641.78125 230.167969 634.566406 231.210938 C 627.355469 232.253906 620.1875 233.550781 613.066406 235.109375 C 605.949219 236.667969 598.894531 238.480469 591.902344 240.542969 C 577.640625 244.984375 563.835938 250.558594 550.488281 257.269531 C 537.140625 263.984375 524.433594 271.742188 512.367188 280.546875 C 500.964844 288.761719 490.835938 297.21875 481.347656 305.480469 C 472.082031 313.707031 463.671875 321.609375 455.832031 329.035156 C 448.136719 336.300781 440.921875 343.058594 434.183594 349.042969 C 427.511719 354.839844 421.171875 360.089844 415.199219 364.378906 C 404.683594 372.226562 393.164062 378.113281 380.640625 382.03125 C 367.449219 385.921875 353.976562 387.78125 340.222656 387.617188 C 326.472656 387.777344 313 385.914062 299.804688 382.03125 C 287.289062 378.113281 275.777344 372.230469 265.261719 364.386719 C 259.289062 360.097656 252.945312 354.855469 246.277344 349.058594 C 239.539062 343.066406 232.332031 336.292969 224.636719 329.058594 C 216.765625 321.632812 208.363281 313.730469 199.121094 305.503906 C 189.65625 297.242188 179.53125 288.753906 168.121094 280.578125 C 156.054688 271.769531 143.351562 264.007812 130.007812 257.292969 C 116.664062 250.578125 102.863281 245 88.597656 240.558594 C 74.617188 236.339844 60.394531 233.1875 45.941406 231.09375 C 31.484375 229.003906 16.953125 228 2.347656 228.085938 L 2.347656 259.992188 C 15.355469 259.910156 28.296875 260.796875 41.171875 262.648438 C 54.046875 264.503906 66.710938 267.304688 79.167969 271.054688 C 91.777344 274.984375 103.980469 279.921875 115.777344 285.867188 C 127.574219 291.8125 138.800781 298.6875 149.460938 306.488281 C 168.242188 320.558594 186.003906 335.820312 202.742188 352.273438 C 216.53125 365.902344 231.152344 378.574219 246.597656 390.296875 C 259.9375 400.164062 274.527344 407.578125 290.363281 412.535156 C 298.464844 414.855469 306.691406 416.601562 315.039062 417.773438 C 323.382812 418.945312 331.769531 419.53125 340.199219 419.53125 C 348.628906 419.53125 357.015625 418.945312 365.359375 417.773438 C 373.707031 416.601562 381.933594 414.855469 390.035156 412.535156 C 405.871094 407.574219 420.460938 400.160156 433.800781 390.289062 C 449.25 378.566406 463.867188 365.882812 477.65625 352.246094 C 494.417969 335.792969 512.199219 320.523438 531 306.445312 C 541.664062 298.648438 552.894531 291.78125 564.691406 285.839844 C 576.488281 279.898438 588.691406 274.964844 601.304688 271.039062 C 613.777344 267.367188 626.449219 264.605469 639.320312 262.753906 C 652.1875 260.898438 665.125 259.972656 678.125 259.972656 C 691.128906 259.972656 704.0625 260.898438 716.933594 262.753906 C 729.800781 264.605469 742.472656 267.367188 754.949219 271.039062 C 773.675781 276.785156 791.371094 284.808594 808.035156 295.113281 L 808.035156 258.539062 C 794.046875 251.164062 779.484375 245.183594 764.347656 240.59375 Z M 764.347656 240.59375 " fill-opacity="1" fill-rule="nonzero"/></svg>